<svg data-v-6805eed4="" version="1.0" xmlns="http://www.w3.org/2000/svg" xmlns:xlink="http://www.w3.org/1999/xlink"
    width="100%" height="100%" viewBox="0 0 340.000000 250.000000" preserveAspectRatio="xMidYMid meet"
    color-interpolation-filters="sRGB" style="margin: auto;">
    <rect data-v-6805eed4="" x="0" y="0" width="100%" height="100%" fill="#ffffff" fill-opacity="0" class="background">
    </rect>
    <rect data-v-6805eed4="" x="0" y="0" width="100%" height="100%" fill="url(#watermark)" fill-opacity="1"
        class="watermarklayer"></rect>
    <g data-v-6805eed4="" class="iconmbgsvg" transform="translate(101.25,56.25)">
        <g fill="#000000" hollow-target="textFill" mask="url(#1dbdb237-556b-42fd-9083-8323432c151e)">
            <g opacity="1" transform="matrix(1,0,0,1,0,0)">
                <g>
                    <rect fill="#000000" fill-opacity="0" stroke-width="2" x="0" y="0" width="137.5" height="137.5"
                        class="image-rect"></rect>
                    <svg x="0" y="0" width="137.5" height="137.5" filtersec="colorsb9104854122"
                        class="image-svg-svg primary" style="overflow: visible;">
                        <svg fill="#000000" xmlns="http://www.w3.org/2000/svg"
                            xmlns:xlink="http://www.w3.org/1999/xlink" xml:space="preserve" version="1.1"
                            style="shape-rendering:geometricPrecision;text-rendering:geometricPrecision;image-rendering:optimizeQuality;"
                            viewBox="0 0 249 249" x="0px" y="0px" fill-rule="evenodd" clip-rule="evenodd">
                            <defs></defs>
                            <g>
                                <path class="fil0"
                                    d="M125 0c68,0 124,56 124,125 0,68 -56,124 -124,124 -69,0 -125,-56 -125,-124 0,-69 56,-125 125,-125z">
                                </path>
                            </g>
                        </svg></svg>
                    <!---->
                </g>
            </g>
            <g transform="translate(43.864999771118164,46.9950008392334)">
                <g data-gra="path-name" fill-rule="" class="tp-name" opacity="1" transform="matrix(1,0,0,1,0,0)">
                    <g transform="scale(1)">
                        <g>
                            <path
                                d="M41.29-23.65L19.93-23.65Q19.11-23.65 18.56-23.11L18.56-23.11Q18.01-22.56 18.01-21.77L18.01-21.77Q18.01-20.95 18.56-20.41L18.56-20.41Q19.11-19.86 19.93-19.86L19.93-19.86 39.38-19.86 39.38-8.03Q39.38-6.29 38.14-5.06L38.14-5.06Q36.91-3.83 35.17-3.83L35.17-3.83 10.77-3.83Q9.02-3.83 7.79-5.06L7.79-5.06Q6.56-6.29 6.56-8.03L6.56-8.03 6.56-21.77Q6.56-22.56 5.98-23.11L5.98-23.11Q5.43-23.65 4.65-23.65L4.65-23.65Q3.86-23.65 3.28-23.11L3.28-23.11Q2.73-22.56 2.73-21.77L2.73-21.77 2.73-8.03Q2.73-4.72 5.09-2.36L5.09-2.36Q7.45 0 10.77 0L10.77 0 35.17 0Q38.49 0 40.84-2.36L40.84-2.36Q43.2-4.72 43.2-8.03L43.2-8.03 43.2-21.77Q43.2-22.56 42.62-23.11L42.62-23.11Q42.08-23.65 41.29-23.65L41.29-23.65ZM35.17-43.51L10.77-43.51Q7.45-43.51 5.09-41.15L5.09-41.15Q2.73-38.83 2.73-35.51L2.73-35.51Q2.73-34.73 3.28-34.15L3.28-34.15Q3.86-33.6 4.65-33.6L4.65-33.6Q5.43-33.6 5.98-34.15L5.98-34.15Q6.56-34.73 6.56-35.51L6.56-35.51Q6.56-37.22 7.79-38.45L7.79-38.45Q9.02-39.72 10.77-39.72L10.77-39.72 35.17-39.72Q36.91-39.72 38.14-38.45L38.14-38.45Q39.38-37.22 39.38-35.51L39.38-35.51 39.38-33.97Q39.38-33.19 39.96-32.61L39.96-32.61Q40.5-32.06 41.29-32.06L41.29-32.06Q42.08-32.06 42.62-32.61L42.62-32.61Q43.2-33.19 43.2-33.97L43.2-33.97 43.2-35.51Q43.2-38.83 40.84-41.15L40.84-41.15Q38.49-43.51 35.17-43.51L35.17-43.51ZM50.59 0Q49.8 0 49.22-0.55L49.22-0.55Q48.67-1.13 48.67-1.91L48.67-1.91 48.67-41.6Q48.67-42.38 49.22-42.96L49.22-42.96Q49.8-43.51 50.59-43.51L50.59-43.51Q51.37-43.51 51.92-42.96L51.92-42.96Q52.5-42.38 52.5-41.6L52.5-41.6 52.5-1.91Q52.5-1.13 51.92-0.55L51.92-0.55Q51.37 0 50.59 0L50.59 0Z"
                                transform="translate(-2.7300000190734863, 43.5099983215332)"></path>
                        </g>
                        <!---->
                        <!---->
                        <!---->
                        <!---->
                        <!---->
                        <!---->
                        <!---->
                    </g>
                </g>
                <!---->
            </g>
        </g>
    </g>
    <mask id="1dbdb237-556b-42fd-9083-8323432c151e">
        <g fill="white">
            <g>
                <rect fill-opacity="0" stroke-width="2" x="0" y="0" width="137.5" height="137.5" class="image-rect">
                </rect> <svg x="0" y="0" width="137.5" height="137.5" filtersec="colorsb9104854122"
                    class="image-svg-svg primary" style="overflow: visible;"><svg xmlns="http://www.w3.org/2000/svg"
                        xmlns:xlink="http://www.w3.org/1999/xlink" xml:space="preserve" version="1.1"
                        style="shape-rendering:geometricPrecision;text-rendering:geometricPrecision;image-rendering:optimizeQuality;"
                        viewBox="0 0 249 249" x="0px" y="0px" fill-rule="evenodd" clip-rule="evenodd">
                        <defs></defs>
                        <g>
                            <path class="fil0"
                                d="M125 0c68,0 124,56 124,125 0,68 -56,124 -124,124 -69,0 -125,-56 -125,-124 0,-69 56,-125 125,-125z">
                            </path>
                        </g>
                    </svg></svg>
            </g>
        </g>
        <g transform="translate(43.864999771118164,46.9950008392334)" fill="black">
            <g data-gra="path-name" fill-rule="" class="tp-name" opacity="1" transform="matrix(1,0,0,1,0,0)">
                <g transform="scale(1)">
                    <g>
                        <path
                            d="M41.29-23.65L19.93-23.65Q19.11-23.65 18.56-23.11L18.56-23.11Q18.01-22.56 18.01-21.77L18.01-21.77Q18.01-20.95 18.56-20.41L18.56-20.41Q19.11-19.86 19.93-19.86L19.93-19.86 39.38-19.86 39.38-8.03Q39.38-6.29 38.14-5.06L38.14-5.06Q36.91-3.83 35.17-3.83L35.17-3.83 10.77-3.83Q9.02-3.83 7.79-5.06L7.79-5.06Q6.56-6.29 6.56-8.03L6.56-8.03 6.56-21.77Q6.56-22.56 5.98-23.11L5.98-23.11Q5.43-23.65 4.65-23.65L4.65-23.65Q3.86-23.65 3.28-23.11L3.28-23.11Q2.73-22.56 2.73-21.77L2.73-21.77 2.73-8.03Q2.73-4.72 5.09-2.36L5.09-2.36Q7.45 0 10.77 0L10.77 0 35.17 0Q38.49 0 40.84-2.36L40.84-2.36Q43.2-4.72 43.2-8.03L43.2-8.03 43.2-21.77Q43.2-22.56 42.62-23.11L42.62-23.11Q42.08-23.65 41.29-23.65L41.29-23.65ZM35.17-43.51L10.77-43.51Q7.45-43.51 5.09-41.15L5.09-41.15Q2.73-38.83 2.73-35.51L2.73-35.51Q2.73-34.73 3.28-34.15L3.28-34.15Q3.86-33.6 4.65-33.6L4.65-33.6Q5.43-33.6 5.98-34.15L5.98-34.15Q6.56-34.73 6.56-35.51L6.56-35.51Q6.56-37.22 7.79-38.45L7.79-38.45Q9.02-39.72 10.77-39.72L10.77-39.72 35.17-39.72Q36.91-39.72 38.14-38.45L38.14-38.45Q39.38-37.22 39.38-35.51L39.38-35.51 39.38-33.97Q39.38-33.19 39.96-32.61L39.96-32.61Q40.5-32.06 41.29-32.06L41.29-32.06Q42.08-32.06 42.62-32.61L42.62-32.61Q43.2-33.19 43.2-33.97L43.2-33.97 43.2-35.51Q43.2-38.83 40.84-41.15L40.84-41.15Q38.49-43.51 35.17-43.51L35.17-43.51ZM50.59 0Q49.8 0 49.22-0.55L49.22-0.55Q48.67-1.13 48.67-1.91L48.67-1.91 48.67-41.6Q48.67-42.38 49.22-42.96L49.22-42.96Q49.8-43.51 50.59-43.51L50.59-43.51Q51.37-43.51 51.92-42.96L51.92-42.96Q52.5-42.38 52.5-41.6L52.5-41.6 52.5-1.91Q52.5-1.13 51.92-0.55L51.92-0.55Q51.37 0 50.59 0L50.59 0Z"
                            transform="translate(-2.7300000190734863, 43.5099983215332)"></path>
                    </g>
                </g>
            </g>
        </g>
    </mask>
    <defs v-gra="od"></defs>
</svg>